<mxfile host="app.diagrams.net" modified="2024-02-14T23:25:45.163Z" agent="Mozilla/5.0 (Windows NT 10.0; Win64; x64) AppleWebKit/537.36 (KHTML, like Gecko) Chrome/121.0.0.0 Safari/537.36" etag="B6jsN35FpLebYY2l-pGh" version="23.1.4" type="github">
  <diagram name="Página-1" id="fu--3HZTQkdgyR_W-xgy">
    <mxGraphModel dx="635" dy="368" grid="1" gridSize="10" guides="1" tooltips="1" connect="1" arrows="1" fold="1" page="1" pageScale="1" pageWidth="827" pageHeight="1169" math="0" shadow="0">
      <root>
        <mxCell id="0" />
        <mxCell id="1" parent="0" />
        <mxCell id="XS2YPMO7M-rk-q-jFxN_-7" style="edgeStyle=orthogonalEdgeStyle;rounded=0;orthogonalLoop=1;jettySize=auto;html=1;entryX=0;entryY=0.5;entryDx=0;entryDy=0;endArrow=none;endFill=0;" edge="1" parent="1" source="XS2YPMO7M-rk-q-jFxN_-1" target="XS2YPMO7M-rk-q-jFxN_-6">
          <mxGeometry relative="1" as="geometry" />
        </mxCell>
        <mxCell id="XS2YPMO7M-rk-q-jFxN_-1" value="Uber" style="whiteSpace=wrap;html=1;align=center;" vertex="1" parent="1">
          <mxGeometry x="70" y="130" width="170" height="70" as="geometry" />
        </mxCell>
        <mxCell id="XS2YPMO7M-rk-q-jFxN_-30" style="edgeStyle=orthogonalEdgeStyle;rounded=0;orthogonalLoop=1;jettySize=auto;html=1;entryX=0.5;entryY=1;entryDx=0;entryDy=0;endArrow=none;endFill=0;" edge="1" parent="1" source="XS2YPMO7M-rk-q-jFxN_-2" target="XS2YPMO7M-rk-q-jFxN_-26">
          <mxGeometry relative="1" as="geometry" />
        </mxCell>
        <mxCell id="XS2YPMO7M-rk-q-jFxN_-2" value="Passageiro" style="whiteSpace=wrap;html=1;align=center;" vertex="1" parent="1">
          <mxGeometry x="470" y="130" width="170" height="70" as="geometry" />
        </mxCell>
        <mxCell id="XS2YPMO7M-rk-q-jFxN_-8" style="edgeStyle=orthogonalEdgeStyle;rounded=0;orthogonalLoop=1;jettySize=auto;html=1;entryX=0;entryY=0.5;entryDx=0;entryDy=0;endArrow=none;endFill=0;" edge="1" parent="1" source="XS2YPMO7M-rk-q-jFxN_-6" target="XS2YPMO7M-rk-q-jFxN_-2">
          <mxGeometry relative="1" as="geometry" />
        </mxCell>
        <mxCell id="XS2YPMO7M-rk-q-jFxN_-6" value="Conduz" style="shape=rhombus;perimeter=rhombusPerimeter;whiteSpace=wrap;html=1;align=center;" vertex="1" parent="1">
          <mxGeometry x="310" y="135" width="120" height="60" as="geometry" />
        </mxCell>
        <mxCell id="XS2YPMO7M-rk-q-jFxN_-22" value="Placa do carro" style="ellipse;whiteSpace=wrap;html=1;align=center;fontStyle=4;" vertex="1" parent="1">
          <mxGeometry x="50" y="240" width="100" height="40" as="geometry" />
        </mxCell>
        <mxCell id="XS2YPMO7M-rk-q-jFxN_-29" style="edgeStyle=orthogonalEdgeStyle;rounded=0;orthogonalLoop=1;jettySize=auto;html=1;entryX=0.5;entryY=0;entryDx=0;entryDy=0;endArrow=none;endFill=0;" edge="1" parent="1" source="XS2YPMO7M-rk-q-jFxN_-23" target="XS2YPMO7M-rk-q-jFxN_-1">
          <mxGeometry relative="1" as="geometry" />
        </mxCell>
        <mxCell id="XS2YPMO7M-rk-q-jFxN_-23" value="Nome" style="ellipse;whiteSpace=wrap;html=1;align=center;" vertex="1" parent="1">
          <mxGeometry x="105" y="60" width="100" height="40" as="geometry" />
        </mxCell>
        <mxCell id="XS2YPMO7M-rk-q-jFxN_-28" style="edgeStyle=orthogonalEdgeStyle;rounded=0;orthogonalLoop=1;jettySize=auto;html=1;endArrow=none;endFill=0;" edge="1" parent="1" source="XS2YPMO7M-rk-q-jFxN_-24" target="XS2YPMO7M-rk-q-jFxN_-1">
          <mxGeometry relative="1" as="geometry" />
        </mxCell>
        <mxCell id="XS2YPMO7M-rk-q-jFxN_-24" value="localização" style="ellipse;whiteSpace=wrap;html=1;align=center;" vertex="1" parent="1">
          <mxGeometry x="160" y="280" width="100" height="40" as="geometry" />
        </mxCell>
        <mxCell id="XS2YPMO7M-rk-q-jFxN_-31" style="edgeStyle=orthogonalEdgeStyle;rounded=0;orthogonalLoop=1;jettySize=auto;html=1;entryX=0.5;entryY=1;entryDx=0;entryDy=0;endArrow=none;endFill=0;" edge="1" parent="1" source="XS2YPMO7M-rk-q-jFxN_-25" target="XS2YPMO7M-rk-q-jFxN_-2">
          <mxGeometry relative="1" as="geometry" />
        </mxCell>
        <mxCell id="XS2YPMO7M-rk-q-jFxN_-25" value="Nome" style="ellipse;whiteSpace=wrap;html=1;align=center;fontStyle=4;" vertex="1" parent="1">
          <mxGeometry x="505" y="240" width="100" height="40" as="geometry" />
        </mxCell>
        <mxCell id="XS2YPMO7M-rk-q-jFxN_-26" value="Localização" style="ellipse;whiteSpace=wrap;html=1;align=center;fontStyle=4;" vertex="1" parent="1">
          <mxGeometry x="505" y="60" width="100" height="40" as="geometry" />
        </mxCell>
        <mxCell id="XS2YPMO7M-rk-q-jFxN_-27" style="edgeStyle=orthogonalEdgeStyle;rounded=0;orthogonalLoop=1;jettySize=auto;html=1;entryX=0.118;entryY=1;entryDx=0;entryDy=0;entryPerimeter=0;endArrow=none;endFill=0;" edge="1" parent="1" source="XS2YPMO7M-rk-q-jFxN_-22" target="XS2YPMO7M-rk-q-jFxN_-1">
          <mxGeometry relative="1" as="geometry" />
        </mxCell>
        <mxCell id="XS2YPMO7M-rk-q-jFxN_-41" value="(1,N)" style="text;html=1;align=center;verticalAlign=middle;resizable=0;points=[];autosize=1;strokeColor=none;fillColor=none;" vertex="1" parent="1">
          <mxGeometry x="260" y="180" width="50" height="30" as="geometry" />
        </mxCell>
        <mxCell id="XS2YPMO7M-rk-q-jFxN_-42" value="(1,1)" style="text;html=1;align=center;verticalAlign=middle;resizable=0;points=[];autosize=1;strokeColor=none;fillColor=none;" vertex="1" parent="1">
          <mxGeometry x="414" y="180" width="50" height="30" as="geometry" />
        </mxCell>
      </root>
    </mxGraphModel>
  </diagram>
</mxfile>
